<?xml version="1.0" encoding="UTF-8"?>
<svg id="_圖層_2" data-name="圖層 2" xmlns="http://www.w3.org/2000/svg" xmlns:xlink="http://www.w3.org/1999/xlink" viewBox="0 0 637.73 282.65">
  <defs>
    <style>
      .cls-1 {
        fill: url(#linear-gradient);
      }

      .cls-1, .cls-2, .cls-3, .cls-4 {
        stroke-width: 0px;
      }

      .cls-2 {
        fill: url(#linear-gradient-2);
      }

      .cls-3 {
        fill: url(#linear-gradient-3);
      }

      .cls-4 {
        fill: #c5670f;
      }
    </style>
    <linearGradient id="linear-gradient" x1="32.4" y1="70.08" x2="16.27" y2="99.11" gradientUnits="userSpaceOnUse">
      <stop offset="0" stop-color="#ffc831"/>
      <stop offset="1" stop-color="#feb82a"/>
    </linearGradient>
    <linearGradient id="linear-gradient-2" x1="633.32" y1="7.98" x2="620.42" y2="14.43" xlink:href="#linear-gradient"/>
    <linearGradient id="linear-gradient-3" x1="390.6" y1="266.1" x2="434.69" y2="180.07" xlink:href="#linear-gradient"/>
  </defs>
  <g id="Layer_1" data-name="Layer 1">
    <g>
      <polygon class="cls-4" points="38.56 72.6 38.56 85.23 7.52 106.86 0 102.16 9.23 111.65 42.08 87.51 38.56 72.6"/>
      <polygon class="cls-1" points="7.52 106.86 38.56 85.23 38.56 72.6 0 102.16 7.52 106.86"/>
    </g>
    <g>
      <polygon class="cls-4" points="615.15 7.32 611.9 16.72 617.8 30.91 637.73 19.12 637.73 15.05 619.85 24.46 615.15 7.32"/>
      <polygon class="cls-2" points="615.15 7.32 637.73 0 637.73 15.05 619.85 24.46 615.15 7.32"/>
    </g>
    <g>
      <polygon class="cls-4" points="384.54 215.46 360.94 250.83 360.94 263.74 391.2 215.46 384.54 215.46"/>
      <polygon class="cls-3" points="406.09 282.65 392.4 262.03 360.94 263.74 391.2 215.46 423.55 262.03 406.09 282.65"/>
    </g>
  </g>
</svg>