<svg id="圖層_1" data-name="圖層 1" xmlns="http://www.w3.org/2000/svg" viewBox="0 0 106.85 106.85"><defs><style>.cls-1{fill:#9fa0a0;}.cls-2{fill:none;}</style></defs><path class="cls-1" d="M68.12,63.87,56.22,43.18l8.92-12.12,36.37,57.83L65.14,18,53.43,38.32,41.71,18,5.34,88.89,41.71,31.06l8.92,12.12L38.73,63.87c-7.26.87-13.35,2.35-17.4,4.23A138.55,138.55,0,0,1,37.49,66L30.63,78l8.89-12.07c4.39-.29,9.06-.44,13.91-.44s9.51.15,13.9.44L76.22,78,69.36,66A138.55,138.55,0,0,1,85.52,68.1C81.47,66.22,75.38,64.74,68.12,63.87ZM53.43,63c-4.29,0-8.4.2-12.24.57L53.43,47,65.66,63.6C61.83,63.23,57.71,63,53.43,63Z"/><rect class="cls-2" width="106.85" height="106.85"/></svg>